<?xml version="1.0" encoding="UTF-8"?>
<svg xmlns="http://www.w3.org/2000/svg" viewBox="0 0 125 30.35">
  <defs>
    <style>
      .cls-1 {
        mix-blend-mode: multiply;
      }

      .cls-2 {
        isolation: isolate;
      }

      .cls-3 {
        fill: #ababab;
        stroke-width: 0px;
      }
    </style>
  </defs>
  <g class="cls-2">
    <g id="Capa_2" data-name="Capa 2">
      <g id="Contenido">
        <g class="cls-1">
          <g>
            <path class="cls-3" d="M124.09,16.3c-.19-.35-.46-.62-.81-.8-.35-.19-.7-.28-1.07-.28s-.72.09-1.07.28c-.35.19-.62.46-.81.8-.19.35-.29.71-.29,1.09s.1.73.29,1.08c.19.34.46.61.8.8.35.19.71.29,1.08.29s.74-.1,1.08-.29c.35-.19.61-.46.8-.8.19-.35.29-.71.29-1.08s-.1-.74-.29-1.09ZM123.78,18.29c-.16.29-.38.51-.67.67-.29.16-.59.24-.9.24s-.61-.08-.9-.24c-.29-.16-.51-.38-.67-.67-.16-.29-.24-.59-.24-.9s.08-.62.24-.91c.16-.29.39-.51.68-.67.29-.16.59-.23.89-.23s.6.08.89.23c.29.16.52.38.68.67.16.29.24.59.24.91s-.08.61-.24.9Z"/>
            <path class="cls-3" d="M122.59,17.67s-.12-.09-.2-.13c.2-.01.36-.09.49-.21.12-.13.18-.28.18-.45,0-.12-.04-.24-.11-.34-.07-.11-.17-.18-.29-.23-.12-.04-.32-.07-.6-.07h-.81v2.34h.38v-.99h.22c.13,0,.24.03.3.08.1.07.23.26.4.54l.21.37h.46l-.29-.46c-.14-.22-.25-.37-.35-.47ZM122.09,17.27h-.47v-.71h.44c.19,0,.31.01.38.04.07.03.12.07.16.12.04.06.06.12.06.19,0,.11-.04.2-.12.26-.08.07-.23.1-.46.1Z"/>
          </g>
          <path class="cls-3" d="M.19,30.34s-.03,0-.03,0c-.08,0-.15-.06-.16-.15,0-.07.04-.14.12-.15H.12c20.14-6.28,41.53-8.51,62.38-8.51,20.86,0,42.26,2.23,62.4,8.51.06.02.1.08.1.15,0,.08-.07.15-.15.15-.01,0-.03,0-.03,0-20.59-3.85-41.49-5.75-62.31-5.75-20.82,0-41.72,1.89-62.31,5.75H.19Z"/>
          <g>
            <path class="cls-3" d="M37.77,8.31c0-4.03-3.8-4.36-7.11-4.36s-6.25.47-6.25.47v2.62s2.61-.42,4.96-.42c3.2,0,3.39.87,3.42,2.52-4.04,0-9.76-.34-9.76,4.08s4.85,4.33,7.82,4.33c2.62,0,6.93-.42,6.93-.42v-8.83ZM32.87,14.91c-.65.1-1.46.15-2.13.15-1.35,0-2.7-.1-2.7-1.73s1.35-1.71,2.7-1.71c.35,0,1.7,0,2.13.02v3.26Z"/>
            <path class="cls-3" d="M60.2,8.22c.4-.16,1.62-.47,2.62-.47,1.89,0,1.95,1.04,1.95,1.04.02.34.03.83.04,1.26v7.32h4.31s.04,0,.06,0h.7v-8.85c0-3-2.41-4.1-4.38-4.1-2.22,0-3.7.6-5.29,1.31V.02h-5.09v17.35h5.09v-9.15Z"/>
            <path class="cls-3" d="M89.71,10.63c0,5.07,3.77,6.93,8.81,6.93,1.43,0,2.86-.12,4.23-.4v-2.8c-.97.08-1.75.2-3.26.2-3.15,0-4.72-.91-4.72-3.78s1.56-3.81,4.72-3.81c1.05,0,2.29.12,3.29.2v-2.7c-1.62-.34-3.29-.47-4.93-.47-4.82,0-8.14,2.03-8.14,6.63Z"/>
            <path class="cls-3" d="M48.26,17.56c1.43,0,2.86-.12,4.23-.4v-2.8c-.97.08-1.75.2-3.26.2-3.15,0-4.72-.91-4.72-3.78s1.56-3.81,4.72-3.81c1.05,0,2.29.12,3.29.2v-2.7c-1.62-.34-3.29-.47-4.93-.47-4.82,0-8.14,2.03-8.14,6.63,0,5.07,3.77,6.93,8.81,6.93Z"/>
            <path class="cls-3" d="M17.16,8.21c-.44-.07-.81-.13-.81-.12,1.06-.25,4.64-.57,4.64-3.77C20.99-.13,14.89,0,14.89,0c-.45,0-1.19.02-1.64.02h-7.98c-.45,0-.82.38-.82.84v15.67c0,.47.37.84.82.84h8.72c2.8,0,7.5-.64,7.5-4.56s-4.33-4.6-4.33-4.6ZM9.82,3.53c0-.46.37-.84.82-.84h2.04c1.75,0,2.61.49,2.61,2.18s-1.8,2-1.8,2c-.44.08-1.18.16-1.63.16h-1.22c-.45,0-.82-.38-.82-.85v-2.66ZM13.9,14.49c-.44.08-1.18.15-1.63.15h-1.67c-.45,0-.82-.38-.82-.84v-3c0-.46.37-.84.82-.84h2.49c1.89,0,2.8.55,2.8,2.33s-2,2.2-2,2.2Z"/>
            <path class="cls-3" d="M88.12,10.66c0-5.05-3.26-6.88-7.97-6.88s-8.11,1.83-8.11,6.88,3.77,6.9,8.11,6.9,7.97-2.05,7.97-6.9ZM77.1,10.66c0-2.11.24-4.18,3.05-4.18s2.91,2.08,2.91,4.18-.11,4.2-2.91,4.2-3.05-2.08-3.05-4.2Z"/>
            <path class="cls-3" d="M112.09,3.78c-4.72,0-8.11,1.83-8.11,6.88s3.77,6.9,8.11,6.9,7.97-2.05,7.97-6.9-3.26-6.88-7.97-6.88ZM112.09,14.86c-2.8,0-3.05-2.08-3.05-4.2s.24-4.18,3.05-4.18,2.91,2.08,2.91,4.18-.11,4.2-2.91,4.2Z"/>
          </g>
        </g>
      </g>
    </g>
  </g>
</svg>