<?xml version="1.0" encoding="UTF-8"?>
<svg xmlns="http://www.w3.org/2000/svg" viewBox="0 0 165 25.47">
  <defs>
    <style>
      .cls-1 {
        fill: #ababab;
        mix-blend-mode: multiply;
        stroke-width: 0px;
      }

      .cls-2 {
        isolation: isolate;
      }
    </style>
  </defs>
  <g class="cls-2">
    <g id="Capa_2" data-name="Capa 2">
      <g id="Contenido">
        <path class="cls-1" d="M110.7,0c8.17,0,13.97,4.46,13.97,12.73s-5.38,12.74-13.97,12.74-13.97-4.62-13.97-12.74S102.25,0,110.7,0ZM110.7,20.21c4.37,0,6.93-3,6.93-7.48,0-4.7-2.71-7.47-6.93-7.47-4.45,0-6.96,3-6.96,7.47s2.44,7.48,6.96,7.48ZM58.4.3h-13.74v1.92c0,1.67.89,3.31,3.26,3.31,1.06,0,8.77,0,8.77,0,3.66,0,4.97,1.18,4.97,4.12v.42h-9.28c-6.88,0-9.43,3.19-9.43,7.53,0,5.25,3.52,7.56,9.45,7.56h6.17c8.08,0,9.8-4.04,9.8-9.38v-6.18c0-5.74-2.13-9.3-9.98-9.3ZM61.67,15.85c0,2.51-1.17,4.43-4.51,4.43h-3.5c-2.43,0-3.89-.65-3.89-2.65s1.35-2.65,3.89-2.65h8.01v.88ZM87.72,5.52h3.41c2.44,0,3.89-.88,3.89-3.11V.3h-9.71c-8.14,0-12.03,4.79-12.03,12.43,0,9.54,5.94,12.43,12.03,12.43h9.71v-2.12c0-2.21-1.52-3.1-3.72-3.1h-3.58c-3.88,0-7.46-1.39-7.46-7.22,0-5.06,2.71-7.21,7.46-7.21ZM14.33,18.37S8.55,3.28,8.23,2.41c-.44-1.19-1.05-2.11-3.24-2.11H0l10.25,24.86h7.45L28.28.3h-4.38c-1.89,0-2.62.81-3.09,1.99l-6.38,16.07h-.1ZM147.27,18.14s-4.25-12.1-5.02-14.39c-.53-1.54-1.25-3.45-4.7-3.45h-7.9v24.86h2.68c2.02,0,3.31-.9,3.31-2.99V4.8h.11l7.67,20.36h7.18l7.67-20.36h.11v17.39c0,1.76.95,2.97,3.32,2.97h3.32V.3h-7.41c-2.62,0-4.24.72-5.03,3.06-.52,1.52-5.17,14.78-5.17,14.78h-.12ZM31.37.3v21.94c0,1.71,1.02,2.92,3.22,2.92h3.49V.3h-6.71Z"/>
      </g>
    </g>
  </g>
</svg>