<?xml version="1.0" encoding="UTF-8"?>
<svg xmlns="http://www.w3.org/2000/svg" viewBox="0 0 125 47.22">
  <defs>
    <style>
      .cls-1 {
        mix-blend-mode: multiply;
      }

      .cls-2 {
        isolation: isolate;
      }

      .cls-3 {
        fill: #ababab;
        stroke-width: 0px;
      }
    </style>
  </defs>
  <g class="cls-2">
    <g id="Capa_2" data-name="Capa 2">
      <g id="Contenido">
        <g id="logo_dyson" data-name="logo dyson" class="cls-1">
          <path class="cls-3" d="M23.78,0h-6.26s0,11.56,0,11.56c-2.12,0-4.34,0-5.65,0C5.31,11.55,0,16.87,0,23.43s5.31,11.87,11.87,11.87c6.56,0,11.9-5.32,11.9-11.87,0-3.28,0-11.88,0-11.88V0ZM17.52,23.43c0,3.12-2.53,5.65-5.65,5.65s-5.65-2.53-5.65-5.65c0-3.12,2.53-5.65,5.65-5.65h5.64s0,5.65,0,5.65Z"/>
          <path class="cls-3" d="M75.03,23.43c0-6.56,5.31-11.87,11.87-11.87,6.56,0,11.87,5.31,11.87,11.87,0,6.55-5.31,11.87-11.87,11.87-6.56,0-11.87-5.31-11.87-11.87M86.88,29.1c3.13,0,5.68-2.54,5.68-5.67,0-3.13-2.54-5.67-5.68-5.67-3.13,0-5.67,2.54-5.67,5.67,0,3.13,2.54,5.67,5.67,5.67"/>
          <path class="cls-3" d="M118.74,23.44c0-3.1-2.51-5.61-5.61-5.61-3.1,0-5.61,2.51-5.61,5.61,0,1.52,0,11.37,0,11.37-3.18,0-6.26,0-6.26,0,0,0,0-8.11,0-11.38,0-6.56,5.31-11.87,11.87-11.87s11.86,5.31,11.86,11.87c0,3.34,0,11.37,0,11.37,0,0-3.08,0-6.26,0,0,0,0-9.81,0-11.37"/>
          <path class="cls-3" d="M60.42,19.3c-.91-.59-.61-1.69.85-2.09,1.94-.54,5.14-.1,8.01,1.16l2.96-4.03c-1.29-1.07-4.04-2.44-8.13-2.7,0,0-6.83-.85-9.59,4.33,0,0-2.45,4.85,2.38,7.86,2.93,1.83,8.03,2.48,9.58,3.35,1.32.74.88,2.14-1.07,2.58-3.23.73-7.59-1.11-9.04-2.21l-2.99,4.12c2,1.55,4.58,2.87,8.65,3.54,0,0,6.42,1.11,9.96-3.3.66-.82,3.56-6.26-2.28-9.37-2.9-1.54-7.75-2.24-9.29-3.24"/>
          <path class="cls-3" d="M31.25,39.45c.26.16,3.18,2.16,6,2.22,6.8.14,7.23-6.93,7.23-8.61-1.3,1.37-3.96,2.23-5.61,2.23-6.56,0-11.82-5.13-11.82-11.69,0-3.24,0-11.59,0-11.59,0,0,3.05,0,6.25.01,0,0,0,10.17,0,11.58,0,3.1,2.51,5.61,5.61,5.61,3.1,0,5.6-2.51,5.6-5.61,0-1.27,0-11.58,0-11.58,3.2,0,6.26-.01,6.26-.01v11.59c0,10.27.5,20.82-9.51,23.21-7.54,1.8-12.86-2.92-13.13-3.13l3.09-4.22Z"/>
        </g>
      </g>
    </g>
  </g>
</svg>