<?xml version="1.0" encoding="UTF-8"?>
<svg xmlns="http://www.w3.org/2000/svg" viewBox="0 0 165 34.92">
  <defs>
    <style>
      .cls-1 {
        mix-blend-mode: multiply;
      }

      .cls-2 {
        isolation: isolate;
      }

      .cls-3 {
        fill: #ababab;
        stroke-width: 0px;
      }
    </style>
  </defs>
  <g class="cls-2">
    <g id="Capa_2" data-name="Capa 2">
      <g id="Contenido">
        <g class="cls-1">
          <path class="cls-3" d="M26.31,25.32c0,1.24-.3,2.41-.89,3.53-.6,1.11-1.43,2.1-2.5,2.95-1.07.85-2.34,1.53-3.8,2.04-1.47.51-3.09.76-4.86.76-1.59,0-3.02-.08-4.29-.25-1.27-.16-2.46-.43-3.57-.78-1.12-.36-2.18-.82-3.21-1.38-1.02-.56-2.09-1.24-3.19-2.04l5.04-4.58c1.47,1.1,2.9,1.88,4.31,2.33,1.41.45,2.93.68,4.58.68.67,0,1.31-.09,1.9-.27.6-.18,1.12-.42,1.56-.72.44-.3.79-.66,1.05-1.07.26-.41.39-.87.39-1.36,0-.52-.11-.99-.32-1.4-.21-.41-.6-.81-1.15-1.2-.55-.38-1.31-.78-2.29-1.17-.98-.4-2.23-.85-3.76-1.34-1.34-.44-2.64-.94-3.87-1.51-1.24-.56-2.32-1.24-3.25-2.04-.93-.8-1.68-1.73-2.25-2.81-.57-1.07-.85-2.34-.85-3.79s.31-2.69.94-3.88c.63-1.18,1.48-2.19,2.57-3.03,1.08-.84,2.35-1.49,3.8-1.96,1.45-.47,3.02-.7,4.7-.7,2.81,0,5.18.33,7.1.99,1.92.66,3.63,1.62,5.13,2.89l-4.95,4.5c-.92-.8-1.94-1.41-3.07-1.84-1.13-.43-2.46-.64-3.99-.64-.7,0-1.35.1-1.95.29-.6.19-1.11.45-1.53.76-.43.32-.77.69-1.03,1.11-.26.43-.39.87-.39,1.34,0,.52.12,1,.37,1.42.24.43.66.84,1.24,1.24.58.4,1.35.8,2.31,1.2.96.4,2.16.83,3.6,1.3,1.83.58,3.41,1.21,4.72,1.9,1.31.69,2.38,1.44,3.21,2.27.83.83,1.44,1.75,1.83,2.78.4,1.03.6,2.19.6,3.48"/>
          <polygon class="cls-3" points="67.19 33.98 60.09 33.98 60.09 19.38 45.65 19.38 45.65 33.98 38.55 33.98 38.55 1.02 45.65 1.02 45.65 14.1 60.09 14.1 60.09 1.02 67.19 1.02 67.19 33.98"/>
          <polygon class="cls-3" points="105.46 33.98 81.26 33.98 81.26 1.02 105.46 1.02 105.46 6.3 88.23 6.3 88.23 14.18 105.23 14.18 105.23 19.34 88.23 19.34 88.23 28.41 105.46 28.41 105.46 33.98"/>
          <rect class="cls-3" x="118.16" y="1.02" width="7.1" height="32.95"/>
          <path class="cls-3" d="M165,.98v33.94l-18.64-17.26v16.22h-6.98V0l18.64,17.26V.98h6.98ZM158.02.98h6.98-6.98Z"/>
        </g>
      </g>
    </g>
  </g>
</svg>