<?xml version="1.0" encoding="UTF-8"?>
<svg id="Capa_2" data-name="Capa 2" xmlns="http://www.w3.org/2000/svg" viewBox="0 0 1247 923">
  <defs>
    <style>
      .cls-1 {
        fill: #3f3e3e;
      }

      .cls-1, .cls-2 {
        stroke-width: 0px;
      }

      .cls-2 {
        fill: #dadbda;
      }
    </style>
  </defs>
  <g id="Base">
    <rect class="cls-2" width="1247" height="923"/>
  </g>
  <g id="Contenido">
    <g>
      <path class="cls-1" d="M983,465.83c0-2.67,3.32-4.83,7.41-4.83s7.41,2.16,7.41,4.83v123.89c0,2.67-3.32,4.83-7.41,4.83s-7.41-2.16-7.41-4.83v-123.89Z"/>
      <path class="cls-1" d="M1015.14,465.83c0-2.67,3.32-4.83,7.41-4.83s7.41,2.16,7.41,4.83v123.89c0,2.67-3.32,4.83-7.41,4.83s-7.41-2.16-7.41-4.83v-123.89Z"/>
      <path class="cls-1" d="M1047.28,465.83c0-2.67,3.32-4.83,7.41-4.83s7.41,2.16,7.41,4.83v123.89c0,2.67-3.32,4.83-7.41,4.83s-7.41-2.16-7.41-4.83v-123.89Z"/>
    </g>
  </g>
</svg>