<?xml version="1.0" encoding="UTF-8"?>
<svg id="Capa_2" data-name="Capa 2" xmlns="http://www.w3.org/2000/svg" viewBox="0 0 1261 481">
  <defs>
    <style>
      .cls-1 {
        fill: none;
        stroke: #fff;
        stroke-miterlimit: 10;
        stroke-width: 2.5px;
      }

      .cls-2 {
        fill: #45ba5b;
      }

      .cls-2, .cls-3, .cls-4, .cls-5 {
        stroke-width: 0px;
      }

      .cls-3 {
        fill: #6f6f6e;
      }

      .cls-4 {
        fill: #ca4f2b;
      }

      .cls-5 {
        fill: #fff;
      }
    </style>
  </defs>
  <g id="Contenido">
    <g>
      <rect class="cls-5" x=".5" width="1260.5" height="479.5"/>
      <path class="cls-2" d="M154,315.27V1H0v480h1259v-68H251.73c-53.98,0-97.73-43.76-97.73-97.73Z"/>
      <line class="cls-1" x1="110.5" y1="1" x2="110.5" y2="480"/>
      <path class="cls-3" d="M1207.1,422.39c0,2.85-2.31,5.16-5.16,5.16-2.85,0-5.16-2.31-5.16-5.16v-92.01c0-2.85,2.31-5.16,5.16-5.16,2.85,0,5.16,2.31,5.16,5.16v92.01Z"/>
      <path class="cls-3" d="M1184.71,422.39c0,2.85-2.31,5.16-5.16,5.16-2.85,0-5.16-2.31-5.16-5.16v-92.01c0-2.85,2.31-5.16,5.16-5.16,2.85,0,5.16,2.31,5.16,5.16v92.01Z"/>
      <path class="cls-3" d="M1162.32,422.39c0,2.85-2.31,5.16-5.16,5.16-2.85,0-5.16-2.31-5.16-5.16v-92.01c0-2.85,2.31-5.16,5.16-5.16,2.85,0,5.16,2.31,5.16,5.16v92.01Z"/>
      <circle class="cls-4" cx="110.74" cy="74.3" r="14.06"/>
    </g>
  </g>
</svg>