<?xml version="1.0" encoding="UTF-8"?>
<svg id="Capa_2" data-name="Capa 2" xmlns="http://www.w3.org/2000/svg" viewBox="0 0 1258 1308">
  <defs>
    <style>
      .cls-1 {
        fill: none;
        stroke: #fff;
        stroke-miterlimit: 10;
        stroke-width: 2.5px;
      }

      .cls-2 {
        fill: #e538cd;
      }

      .cls-2, .cls-3 {
        stroke-width: 0px;
      }

      .cls-3 {
        fill: #e5e25f;
      }
    </style>
  </defs>
  <g id="Fondo">
    <g>
      <line class="cls-1" x1="532.59" x2="532.59" y2="1308"/>
      <polygon class="cls-3" points="0 95.72 0 283 1257 189.36 0 95.72"/>
      <path class="cls-2" d="M1258,1308V310.74H0v997.26h1258ZM48.69,704.93c0-160.39,130.02-290.4,290.4-290.4h0c160.39,0,290.4,130.02,290.4,290.4,0-160.39,130.02-290.4,290.4-290.4h0c160.38,0,290.4,130.02,290.4,290.4v193.87c0,160.39-130.02,290.4-290.4,290.4h0c-160.39,0-290.4-130.02-290.4-290.4,0,160.39-130.02,290.4-290.4,290.4h0c-160.38,0-290.4-130.02-290.4-290.4v-193.87Z"/>
    </g>
  </g>
</svg>