<?xml version="1.0" encoding="UTF-8"?>
<svg id="Capa_2" data-name="Capa 2" xmlns="http://www.w3.org/2000/svg" viewBox="0 0 1259 480">
  <defs>
    <style>
      .cls-1 {
        fill: none;
        stroke: #fff;
        stroke-miterlimit: 10;
        stroke-width: 2.5px;
      }

      .cls-2 {
        fill: #45ba5b;
      }

      .cls-2, .cls-3, .cls-4 {
        stroke-width: 0px;
      }

      .cls-3 {
        fill: #6f6f6e;
      }

      .cls-4 {
        fill: #ca4f2b;
      }
    </style>
  </defs>
  <g id="Fondo">
    <g>
      <path class="cls-2" d="M154,314.27V0H0v480h1259v-68H251.73c-53.98,0-97.73-43.76-97.73-97.73Z"/>
      <g>
        <path class="cls-3" d="M1206.1,422.39c0,2.85-2.31,5.16-5.16,5.16-2.85,0-5.16-2.31-5.16-5.16v-92.01c0-2.85,2.31-5.16,5.16-5.16,2.85,0,5.16,2.31,5.16,5.16v92.01Z"/>
        <path class="cls-3" d="M1183.71,422.39c0,2.85-2.31,5.16-5.16,5.16-2.85,0-5.16-2.31-5.16-5.16v-92.01c0-2.85,2.31-5.16,5.16-5.16,2.85,0,5.16,2.31,5.16,5.16v92.01Z"/>
        <path class="cls-3" d="M1161.32,422.39c0,2.85-2.31,5.16-5.16,5.16-2.85,0-5.16-2.31-5.16-5.16v-92.01c0-2.85,2.31-5.16,5.16-5.16,2.85,0,5.16,2.31,5.16,5.16v92.01Z"/>
      </g>
      <line class="cls-1" x1="109.5" y1="1" x2="109.59" y2="479"/>
      <ellipse class="cls-4" cx="109.74" cy="55.2" rx="14.06" ry="13.92"/>
    </g>
  </g>
</svg>