<?xml version="1.0" encoding="UTF-8"?>
<svg id="Capa_2" data-name="Capa 2" xmlns="http://www.w3.org/2000/svg" viewBox="0 0 1258 997.26">
  <defs>
    <style>
      .cls-1 {
        fill: #e538cd;
        stroke-width: 0px;
      }
    </style>
  </defs>
  <g id="Fondo">
    <path class="cls-1" d="M1258,997.26V0H0v997.26h1258ZM48.69,394.19c0-160.39,130.02-290.4,290.4-290.4h0c160.39,0,290.4,130.02,290.4,290.4,0-160.39,130.02-290.4,290.4-290.4h0c160.38,0,290.4,130.02,290.4,290.4v193.87c0,160.39-130.02,290.4-290.4,290.4h0c-160.39,0-290.4-130.02-290.4-290.4,0,160.39-130.02,290.4-290.4,290.4h0c-160.38,0-290.4-130.02-290.4-290.4v-193.87Z"/>
  </g>
</svg>