<?xml version="1.0" encoding="UTF-8"?>
<svg id="Capa_2" data-name="Capa 2" xmlns="http://www.w3.org/2000/svg" viewBox="0 0 1259 720.78">
  <defs>
    <style>
      .cls-1 {
        fill: none;
        stroke: #fff;
        stroke-miterlimit: 10;
        stroke-width: 2.5px;
      }

      .cls-2 {
        fill: #45ba5b;
      }

      .cls-2, .cls-3, .cls-4, .cls-5 {
        stroke-width: 0px;
      }

      .cls-3 {
        fill: #354490;
      }

      .cls-4 {
        fill: #3f3e3e;
      }

      .cls-5 {
        fill: #fff;
      }
    </style>
  </defs>
  <g id="Contenido">
    <g>
      <rect class="cls-3" y="67.78" width="1259" height="653"/>
      <path class="cls-5" d="M593.35,707.78c-169.74,0-307.35-136.78-307.35-305.5h0c0-168.72,137.6-305.5,307.35-305.5h207.3c169.74,0,307.35,136.78,307.35,305.5h0c0,168.72-137.6,305.5-307.35,305.5h-207.3Z"/>
      <g>
        <path class="cls-1" d="M89.54,720.78v-331.73c0-182.95,148.31-331.27,331.27-331.27h0"/>
        <circle class="cls-2" cx="89.54" cy="620.86" r="14.06"/>
      </g>
      <g>
        <path class="cls-4" d="M1206.1,97.17c0,2.85-2.31,5.16-5.16,5.16-2.85,0-5.16-2.31-5.16-5.16V5.16c0-2.85,2.31-5.16,5.16-5.16,2.85,0,5.16,2.31,5.16,5.16v92.01Z"/>
        <path class="cls-4" d="M1183.71,97.17c0,2.85-2.31,5.16-5.16,5.16-2.85,0-5.16-2.31-5.16-5.16V5.16c0-2.85,2.31-5.16,5.16-5.16,2.85,0,5.16,2.31,5.16,5.16v92.01Z"/>
        <path class="cls-4" d="M1161.32,97.17c0,2.85-2.31,5.16-5.16,5.16-2.85,0-5.16-2.31-5.16-5.16V5.16c0-2.85,2.31-5.16,5.16-5.16,2.85,0,5.16,2.31,5.16,5.16v92.01Z"/>
      </g>
    </g>
  </g>
</svg>