<?xml version="1.0" encoding="UTF-8"?>
<svg id="Capa_2" data-name="Capa 2" xmlns="http://www.w3.org/2000/svg" viewBox="0 0 1259 653">
  <defs>
    <style>
      .cls-1 {
        fill: #45ba5b;
      }

      .cls-1, .cls-2, .cls-3, .cls-4 {
        stroke-width: 0px;
      }

      .cls-2 {
        fill: #354490;
      }

      .cls-3 {
        fill: #dadbda;
      }

      .cls-4 {
        fill: #fff;
      }
    </style>
  </defs>
  <g id="Fondo">
    <g>
      <rect class="cls-2" width="1259" height="653"/>
      <path class="cls-3" d="M593.3,633.5c-179.66,0-325.3-135.1-325.3-301.75h0c0-166.65,145.64-301.75,325.3-301.75h219.41c179.66,0,325.3,135.1,325.3,301.75h0c0,166.65-145.64,301.75-325.3,301.75h-219.41Z"/>
      <g>
        <path class="cls-4" d="M1184.75,653c-.69-96.67-1.04-226.18-1.14-322.78-.09-15.02-.74-30.99-2.87-45.83C1160.73,122.69,1015.43-.39,853.48,0c23.98.05,48.5,2.3,71.99,7.38,6.37,1.32,13.04,2.91,19.22,4.69,3.99,1.03,8.87,2.44,12.65,3.74,3.9,1.37,8.78,2.73,12.5,4.24,0,0,12.32,4.74,12.32,4.74,5.97,2.62,12.21,5.21,18.07,8.11,97.96,46.63,169.63,143.16,182.87,251.19,2.12,14.93,2.74,31.05,2.79,46.14-.1,96.5-.47,226.24-1.14,322.78h0Z"/>
        <ellipse class="cls-1" cx="1082.75" cy="86.58" rx="14.06" ry="13.85"/>
        <ellipse class="cls-1" cx="1183.75" cy="626.58" rx="14.06" ry="13.85"/>
      </g>
    </g>
  </g>
</svg>