<?xml version="1.0" encoding="UTF-8"?>
<svg id="Capa_2" data-name="Capa 2" xmlns="http://www.w3.org/2000/svg" viewBox="0 0 62.98 112.5">
  <defs>
    <style>
      .cls-1 {
        fill: none;
        stroke: #354490;
        stroke-linecap: round;
        stroke-linejoin: round;
        stroke-width: 2.5px;
      }
    </style>
  </defs>
  <g id="Contenido">
    <g>
      <g>
        <g>
          <path class="cls-1" d="M46.58,17.87c9.05,5.22,15.14,15,15.14,26.21,0,16.7-13.54,30.24-30.24,30.24S1.25,60.78,1.25,44.08c0-11.2,6.09-20.98,15.14-26.21"/>
          <path class="cls-1" d="M61.73,74.26H1.25c0,16.7,13.54,30.24,30.24,30.24s30.24-13.54,30.24-30.24Z"/>
          <path class="cls-1" d="M57.68,111.25H5.3c5.23-9.04,15-15.12,26.19-15.12s20.96,6.08,26.19,15.12Z"/>
        </g>
        <path class="cls-1" d="M1.25,74.26c0-16.7,13.54-30.24,30.24-30.24s30.24,13.54,30.24,30.24"/>
      </g>
      <rect class="cls-1" x="16.4" y="1.25" width="30.18" height="72.76" rx="15.09" ry="15.09" transform="translate(62.98 75.26) rotate(180)"/>
    </g>
  </g>
</svg>