<?xml version="1.0" encoding="UTF-8"?>
<svg id="Capa_2" data-name="Capa 2" xmlns="http://www.w3.org/2000/svg" viewBox="0 0 62.52 113.33">
  <defs>
    <style>
      .cls-1 {
        fill: none;
        stroke: #354490;
        stroke-linecap: round;
        stroke-linejoin: round;
        stroke-width: 2.75px;
      }
    </style>
  </defs>
  <g id="Contenido">
    <g>
      <g>
        <rect class="cls-1" x="15.22" y="49.62" width="32.09" height="62.34" rx="2.98" ry="2.98"/>
        <line class="cls-1" x1="29.2" y1="108.06" x2="33.32" y2="108.06"/>
        <path class="cls-1" d="M39.28,49.62v2.37c0,.97-.78,1.75-1.75,1.75h-12.54c-.97,0-1.75-.78-1.75-1.75v-2.37"/>
      </g>
      <path class="cls-1" d="M49.62,18.45c-1.29,0-2.52.22-3.68.61.17-.89.26-1.81.26-2.74,0-8.25-6.69-14.94-14.94-14.94s-14.81,6.57-14.93,14.71c-.7-.12-1.41-.19-2.15-.19-7.07,0-12.81,5.73-12.81,12.81s5.73,12.81,12.81,12.81h12.81v-10.25h-2.96c-.51,0-.79-.6-.45-.99l7.23-8.31c.24-.27.66-.27.9,0l7.23,8.31c.34.39.06.99-.45.99h-3.81v10.25h14.94c6.37,0,11.53-5.16,11.53-11.53s-5.16-11.53-11.53-11.53Z"/>
      <g>
        <path class="cls-1" d="M31.48,88.11c1.32,0,2.38,1.07,2.38,2.38,0,1.32-1.07,2.38-2.38,2.38s-2.38-1.07-2.38-2.38c0-1.32,1.07-2.38,2.38-2.38Z"/>
        <g>
          <circle class="cls-1" cx="22.43" cy="90.49" r="2.38"/>
          <polyline class="cls-1" points="22.43 88.11 22.43 83.8 26.76 80.49 26.76 66.13"/>
        </g>
        <g>
          <path class="cls-1" d="M40.1,88.11c-1.32,0-2.38,1.07-2.38,2.38s1.07,2.38,2.38,2.38,2.38-1.07,2.38-2.38c0-1.32-1.07-2.38-2.38-2.38Z"/>
          <polyline class="cls-1" points="40.1 88.11 40.1 83.8 35.77 80.49 35.77 66.13"/>
        </g>
        <line class="cls-1" x1="31.48" y1="88.11" x2="31.48" y2="73.82"/>
      </g>
    </g>
  </g>
</svg>