<?xml version="1.0" encoding="UTF-8"?>
<svg id="Capa_2" data-name="Capa 2" xmlns="http://www.w3.org/2000/svg" viewBox="0 0 87.95 112.75">
  <defs>
    <style>
      .cls-1, .cls-2 {
        stroke: #e5e25f;
        stroke-linecap: round;
        stroke-linejoin: round;
        stroke-width: 2.75px;
      }

      .cls-1, .cls-3 {
        fill: #e5e25f;
      }

      .cls-2 {
        fill: none;
      }

      .cls-3 {
        stroke-width: 0px;
      }
    </style>
  </defs>
  <g id="Contenido">
    <g>
      <g>
        <g>
          <g>
            <path class="cls-2" d="M17.61,29.41v6.2c0,1.09.43,2.14,1.21,2.91l10.66,10.66"/>
            <circle class="cls-2" cx="17.61" cy="25.1" r="4.31"/>
          </g>
          <g>
            <path class="cls-2" d="M70.1,29.41v6.2c0,1.09-.43,2.14-1.21,2.91l-10.66,10.66"/>
            <circle class="cls-2" cx="70.1" cy="25.1" r="4.31"/>
          </g>
        </g>
        <g>
          <g>
            <path class="cls-2" d="M17.85,84.05v-6.2c0-1.09.43-2.14,1.21-2.91l10.66-10.66"/>
            <circle class="cls-2" cx="17.85" cy="88.37" r="4.31"/>
          </g>
          <g>
            <path class="cls-2" d="M70.34,84.05v-6.2c0-1.09-.43-2.14-1.21-2.91l-10.66-10.66"/>
            <circle class="cls-2" cx="70.34" cy="88.37" r="4.31"/>
          </g>
        </g>
      </g>
      <g>
        <g>
          <line class="cls-2" x1="44.04" y1="10.72" x2="44.04" y2="40.92"/>
          <circle class="cls-1" cx="44.04" cy="5.69" r="4.31"/>
        </g>
        <g>
          <line class="cls-2" x1="43.92" y1="102.03" x2="43.92" y2="71.83"/>
          <circle class="cls-1" cx="43.92" cy="107.06" r="4.31"/>
        </g>
      </g>
      <g>
        <g>
          <g>
            <line class="cls-2" x1="7.91" y1="49.33" x2="31.63" y2="49.33"/>
            <circle class="cls-3" cx="5.03" cy="49.33" r="5.03"/>
          </g>
          <g>
            <line class="cls-2" x1="80.04" y1="49.75" x2="56.32" y2="49.75"/>
            <circle class="cls-3" cx="82.92" cy="49.75" r="5.03"/>
          </g>
        </g>
        <g>
          <g>
            <line class="cls-2" x1="7.91" y1="63.71" x2="31.63" y2="63.71"/>
            <circle class="cls-3" cx="5.03" cy="63.71" r="5.03"/>
          </g>
          <g>
            <line class="cls-2" x1="80.04" y1="64.13" x2="56.32" y2="64.13"/>
            <circle class="cls-3" cx="82.92" cy="64.13" r="5.03"/>
          </g>
        </g>
      </g>
      <circle class="cls-2" cx="43.98" cy="56.73" r="27.68"/>
      <path class="cls-3" d="M61.94,54.57c-.09-.84-.24-1.65-.44-2.45l2.7-4.09-2.74-4.74-4.87.29c-.61-.6-1.27-1.15-1.96-1.66l-.55-4.81-5.14-1.87-3.45,3.27c-.5-.04-1-.06-1.5-.06-.43,0-.87.02-1.29.05l-3.52-3.34-5.14,1.87-.55,4.79c-.79.57-1.53,1.19-2.22,1.88l-4.79-.29-2.74,4.74,2.7,4.09c-.18.76-.32,1.54-.41,2.33l-3.94,2.92.95,5.39,4.62,1.37c.44.92.95,1.8,1.53,2.63l-1.1,4.62,4.19,3.52,4.48-1.94c.74.32,1.5.6,2.29.82l2.2,4.4h5.47l2.2-4.4c.93-.26,1.83-.6,2.69-1l4.32,1.87,4.19-3.52-1.12-4.7c.49-.73.92-1.5,1.3-2.3l4.61-1.37.95-5.39-3.93-2.92ZM43.98,66.59c-5.44,0-9.85-4.41-9.85-9.85s4.41-9.85,9.85-9.85,9.85,4.41,9.85,9.85-4.41,9.85-9.85,9.85Z"/>
    </g>
  </g>
</svg>