<?xml version="1.0" encoding="UTF-8"?>
<svg id="Capa_2" data-name="Capa 2" xmlns="http://www.w3.org/2000/svg" viewBox="0 0 79.63 83.75">
  <defs>
    <style>
      .cls-1 {
        stroke-linecap: round;
      }

      .cls-1, .cls-2 {
        fill: none;
        stroke: #ae458d;
        stroke-linejoin: round;
        stroke-width: 2.75px;
      }

      .cls-3 {
        fill: #ae458d;
        stroke-width: 0px;
      }
    </style>
  </defs>
  <g id="Contenido">
    <g>
      <polygon class="cls-1" points="24.71 61.78 59.03 27.46 78.25 79.63 24.71 61.78"/>
      <line class="cls-2" x1="31.58" y1="64.53" x2="61.76" y2="34.85"/>
      <circle class="cls-3" cx="43.25" cy="62.47" r="2.06"/>
      <circle class="cls-3" cx="62.47" cy="54.23" r="2.06"/>
      <circle class="cls-3" cx="77.57" cy="58.35" r="2.06"/>
      <circle class="cls-3" cx="26.77" cy="70.7" r="2.06"/>
      <circle class="cls-3" cx="10.3" cy="51.48" r="2.06"/>
      <circle class="cls-3" cx="7.55" cy="25.4" r="2.06"/>
      <circle class="cls-3" cx="24.03" cy="8.92" r="2.06"/>
      <circle class="cls-3" cx="55.6" cy="15.79" r="2.06"/>
      <line class="cls-1" x1="46.67" y1="59.22" x2="53.54" y2="52.17"/>
      <line class="cls-1" x1="55" y1="61.87" x2="59.03" y2="57.66"/>
      <line class="cls-1" x1="59" y1="67.49" x2="65.87" y2="60.44"/>
      <circle class="cls-1" cx="8.24" cy="68.64" r="4.12"/>
      <circle class="cls-1" cx="64.53" cy="8.24" r="4.12"/>
      <circle class="cls-1" cx="7.55" cy="4.81" r="3.43"/>
      <circle class="cls-1" cx="43.25" cy="78.94" r="3.43"/>
      <path class="cls-1" d="M33.41,53.08s-7.33-11.89-32.04-10.52"/>
      <path class="cls-1" d="M39.64,4.12s-2.32,17.6,9.91,32.82"/>
      <path class="cls-1" d="M17.85,32.95s9.47,1.51,21.21,14.49"/>
      <path class="cls-1" d="M30.57,20.53s-.14,8.08,13.47,21.92"/>
    </g>
  </g>
</svg>