<?xml version="1.0" encoding="UTF-8"?>
<svg id="Capa_2" data-name="Capa 2" xmlns="http://www.w3.org/2000/svg" viewBox="0 0 63.29 80.83">
  <defs>
    <style>
      .cls-1 {
        fill: #ca4f2b;
        stroke-width: 0px;
      }
    </style>
  </defs>
  <g id="Contenido">
    <g>
      <g>
        <path class="cls-1" d="M31.89,66.18c-1.78,0-3.56-.04-5.34.01-2.36.07-3.88-1.66-4.01-3.62-.28-4.19-1.78-7.98-3.98-11.51-1.24-2-2.52-3.97-3.74-5.98-1.82-2.99-3.18-6.18-3.7-9.66-1.12-7.48.64-14.1,6.15-19.46,3.4-3.31,7.55-5.13,12.27-5.66,10.92-1.22,20.83,6.18,22.88,16.75,1.03,5.31.23,10.39-2.1,15.25-1.12,2.34-2.56,4.48-3.93,6.67-.91,1.46-1.8,2.94-2.62,4.45-1.58,2.91-2.43,6.05-2.72,9.35-.18,2.03-1.67,3.4-3.73,3.42-1.81.02-3.62,0-5.43,0ZM31.75,63.48c1.78,0,3.56,0,5.34,0,.93,0,1.25-.3,1.32-1.2.31-3.96,1.49-7.65,3.47-11.07,1.41-2.43,2.95-4.79,4.42-7.18,2.46-3.99,3.94-8.26,3.85-13.01-.1-4.88-1.79-9.11-5.19-12.57-4.43-4.5-9.85-6.29-16.09-5.33-5.23.81-9.37,3.49-12.31,7.88-3.23,4.83-3.76,10.12-2.44,15.68.68,2.86,2.01,5.42,3.54,7.9,1.39,2.24,2.83,4.46,4.15,6.74,1.88,3.27,3.05,6.81,3.36,10.58.09,1.14.41,1.66,1.77,1.61,1.61-.06,3.22-.01,4.82-.01Z"/>
        <path class="cls-1" d="M31.89,68.03c2.15,0,4.31,0,6.46,0,.23,0,.46-.01.69.01.69.08,1.14.57,1.18,1.26.04.73-.3,1.25-.97,1.43-.22.06-.45.07-.68.07-4.42,0-8.84,0-13.26,0-.17,0-.35,0-.52-.02-.77-.12-1.23-.67-1.2-1.43.02-.71.51-1.22,1.24-1.3.23-.03.46-.02.69-.02,2.12,0,4.25,0,6.37,0Z"/>
        <path class="cls-1" d="M31.98,72.5c2.15,0,4.3,0,6.46,0,.34,0,.7,0,1.02.12.51.18.79.73.77,1.32-.02.61-.32,1.05-.9,1.22-.27.08-.56.11-.85.11-4.36,0-8.72,0-13.09,0-.28,0-.58-.03-.85-.1-.65-.19-1.01-.77-.95-1.45.06-.63.51-1.11,1.15-1.2.25-.03.52-.03.77-.03,2.15,0,4.3,0,6.46,0h0Z"/>
        <path class="cls-1" d="M35.69,77.09c0,1.45-.63,2.42-1.71,3.09-1.42.89-2.9.87-4.3-.05-1.02-.68-1.66-1.62-1.6-2.99.86-.25,1.69-.1,2.51-.13.83-.03,1.67-.01,2.5,0,.82.01,1.65-.06,2.59.08Z"/>
        <path class="cls-1" d="M12.64,49.85c.65,0,1.04.64.75,1.17-.08.15-.2.28-.32.4-.83.83-1.67,1.66-2.5,2.48-.12.12-.25.25-.4.32-.31.16-.62.1-.87-.15-.24-.24-.34-.53-.18-.86.02-.05.04-.11.08-.15,1.01-1.02,2.01-2.04,3.04-3.04.11-.11.31-.13.41-.17Z"/>
        <path class="cls-1" d="M6.84,22.09c-.09-.03-.29-.07-.47-.15-1.08-.45-2.16-.9-3.23-1.36-.18-.08-.37-.17-.51-.3-.26-.24-.28-.55-.15-.87.13-.33.4-.47.75-.47.08,0,.17.01.25.05,1.26.53,2.53,1.05,3.78,1.61.43.19.55.52.45.9-.11.39-.33.56-.85.58Z"/>
        <path class="cls-1" d="M44.34,3.34s-.03.18-.08.31c-.49,1.18-.99,2.37-1.5,3.55-.06.15-.17.35-.3.39-.26.07-.56.11-.81.03-.32-.1-.46-.42-.42-.76.02-.17.09-.33.15-.49.45-1.08.9-2.16,1.36-3.23.07-.16.14-.31.25-.45.24-.32.57-.37.92-.22.32.14.47.4.43.86Z"/>
        <path class="cls-1" d="M54.27,53.36c.01.73-.62,1.13-1.15.85-.15-.08-.27-.21-.39-.33-.83-.83-1.67-1.66-2.5-2.5-.12-.12-.24-.25-.32-.4-.17-.31-.11-.62.13-.87.24-.25.54-.35.86-.2.18.08.34.22.48.36.84.83,1.68,1.65,2.5,2.49.19.2.31.46.4.6Z"/>
        <path class="cls-1" d="M60.05,44.39c-.11-.03-.28-.06-.43-.13-1.11-.46-2.22-.93-3.32-1.4-.18-.08-.38-.17-.5-.32-.25-.29-.24-.65-.05-.96.18-.3.51-.43.82-.31,1.33.53,2.65,1.08,3.96,1.66.36.16.45.58.33.97-.12.36-.4.45-.8.49Z"/>
        <path class="cls-1" d="M56.6,22.28c-.5.02-.77-.17-.9-.53-.12-.34,0-.63.26-.84.15-.12.35-.19.53-.27,1-.42,2-.83,3-1.24.05-.02.1-.05.16-.07.67-.24,1.11-.11,1.31.37.19.46-.06.86-.73,1.14-1.03.43-2.06.84-3.09,1.26-.21.08-.43.15-.54.19Z"/>
        <path class="cls-1" d="M50.73,13.49c-.72-.01-1.08-.58-.84-1.09.06-.13.15-.25.25-.35.89-.9,1.77-1.8,2.68-2.68.42-.4.91-.41,1.23-.09.33.34.31.78-.11,1.22-.88.91-1.78,1.8-2.68,2.68-.17.17-.42.25-.53.32Z"/>
        <path class="cls-1" d="M22.26,6.78c.01.45-.17.71-.5.81-.34.1-.71.09-.91-.28-.21-.4-.38-.83-.55-1.26-.36-.88-.72-1.75-1.06-2.63-.17-.44,0-.86.35-1.02.4-.19.89-.05,1.09.39.54,1.24,1.03,2.49,1.54,3.74.04.1.04.22.05.25Z"/>
        <path class="cls-1" d="M3.14,44.17c-.44-.03-.68-.19-.79-.54-.1-.34-.02-.64.25-.84.18-.14.4-.22.61-.31,1.01-.42,2.01-.84,3.02-1.24.68-.27,1.15-.16,1.34.29.2.49-.02.9-.68,1.18-1.08.46-2.17.89-3.26,1.33-.18.07-.38.11-.49.14Z"/>
        <path class="cls-1" d="M9.84,8.97c.3.19.56.3.76.49.84.82,1.67,1.66,2.5,2.49.06.06.12.12.17.19.28.38.28.8.01,1.1-.3.33-.78.36-1.15.02-.53-.48-1.02-1-1.53-1.51-.45-.45-.9-.89-1.33-1.35-.27-.28-.33-.64-.11-.95.15-.2.43-.31.68-.48Z"/>
        <path class="cls-1" d="M32.44,2.82c0,.63.01,1.26,0,1.89-.02.61-.31.94-.78.94-.46,0-.78-.34-.79-.94-.02-1.26.02-2.53-.02-3.79-.02-.69.65-1.15,1.22-.81.31.19.38.48.38.81,0,.63,0,1.26,0,1.89h0Z"/>
        <path class="cls-1" d="M2.77,32.45c-.6,0-1.2.01-1.81,0-.63-.01-.94-.27-.96-.73-.02-.47.31-.82.89-.83,1.29-.02,2.58,0,3.87,0,.11,0,.23.02.34.06.38.13.58.47.52.88-.06.4-.29.62-.69.63-.72.01-1.43,0-2.15,0h0Z"/>
        <path class="cls-1" d="M60.51,32.45c-.66,0-1.32.01-1.98,0-.56-.02-.83-.28-.84-.76,0-.48.26-.79.81-.8,1.32-.03,2.64-.03,3.96,0,.59.01.86.34.83.87-.03.48-.28.69-.89.7-.63.01-1.26,0-1.89,0Z"/>
      </g>
      <path class="cls-1" d="M27.42,52.75c-.2,0-.41-.05-.6-.16-.58-.33-.78-1.07-.45-1.65l9.75-16.98-11.21,4c-.47.17-1,.03-1.32-.35-.32-.38-.38-.92-.14-1.36l8.98-16.3c.32-.58,1.06-.8,1.64-.47.58.32.8,1.06.47,1.64l-7.44,13.51,11.29-4.03c.48-.17,1.01-.02,1.33.36s.37.94.12,1.37l-11.37,19.82c-.22.39-.63.61-1.05.61Z"/>
    </g>
  </g>
</svg>